<svg height="460pt" viewBox="0 -35 460 460" width="460pt" xmlns="http://www.w3.org/2000/svg"><path d="m460 77.5-20.5 73.300781h-342.5l-12.5-73.300781zm0 0" fill="#d4e1f4"/><path d="m439.300781 150.800781h-332.199219l-17.203124-100.902343c-4.847657-28.84375-29.847657-49.9531255-59.097657-49.898438h-20.800781c-5.523438 0-10 4.476562-10 10s4.476562 10 10 10h20.699219c19.515625-.042969 36.191406 14.050781 39.402343 33.300781l47.5 278.097657v.101562c.78125 4.855469 4.980469 8.417969 9.898438 8.398438.535156.015624 1.070312-.019532 1.601562-.097657 2.613282-.402343 4.960938-1.835937 6.519532-3.972656 1.558594-2.140625 2.199218-4.8125 1.777344-7.429687v-.296876l-11.597657-68h245.300781c22.453126-.023437 42.148438-14.980468 48.199219-36.601562l20.199219-72.601562zm0 0" fill="#00efd1"/><path d="m210.601562 336.398438h108v20h-108zm0 0" fill="#00efd1"/><g fill="#00acea"><path d="m127.601562 329.699219c8.609376-20.351563 31.234376-30.875 52.347657-24.347657 21.113281 6.53125 33.847656 27.988282 29.464843 49.648438-4.382812 21.664062-24.460937 36.480469-46.453124 34.289062-21.988282-2.195312-38.742188-20.6875-38.761719-42.789062-.023438-5.773438 1.132812-11.488281 3.402343-16.800781zm0 0"/><path d="m318.300781 346.398438c.054688-23.734376 19.332031-42.933594 43.066407-42.898438 23.734374.035156 42.949218 19.296875 42.933593 43.035156-.019531 23.734375-19.265625 42.964844-43 42.964844-11.429687.023438-22.394531-4.511719-30.46875-12.605469-8.070312-8.089843-12.582031-19.066406-12.53125-30.496093zm0 0"/></g></svg>