<svg height="409pt" viewBox="0 0 409.06255 409" width="409pt" xmlns="http://www.w3.org/2000/svg"><path d="m406.125 391.957031-92.199219-92.199219c-3.894531-3.894531-10.207031-3.894531-14.101562 0-3.894531 3.890626-3.894531 10.203126 0 14.097657l92.199219 92.199219c1.878906 1.890624 4.441406 2.9375 7.101562 2.902343 2.652344-.011719 5.199219-1.050781 7.101562-2.902343 3.820313-3.9375 3.777344-10.214844-.101562-14.097657zm0 0" fill="#fedb41"/><g fill="#00efd1"><path d="m263.726562 156.957031v1.699219c-.015624 8.113281-6.589843 14.6875-14.703124 14.699219h-144c-8.113282-.011719-14.683594-6.585938-14.699219-14.699219v-1.699219c.015625-8.113281 6.585937-14.6875 14.699219-14.699219h144.101562c8.078125.054688 14.601562 6.617188 14.601562 14.699219zm0 0"/><path d="m248.324219 173.355469v.199219l-9.097657 61.703124c-1.0625 7.1875-7.234374 12.507813-14.5 12.5h-95.300781c-7.277343.039063-13.46875-5.296874-14.5-12.5l-9.199219-61.703124v-.199219zm0 0"/><path d="m236.023438 142.257812h-131.097657c-8.113281.011719-14.6875 6.585938-14.699219 14.699219v1.699219c.011719 8.113281 6.585938 14.6875 14.699219 14.699219h.699219v.199219l9.199219 61.703124c1.0625 7.1875 7.234375 12.507813 14.5 12.5h95.300781c7.277344.039063 13.46875-5.296874 14.5-12.5l9.101562-61.703124v-.199219h.699219c8.113281-.011719 14.6875-6.585938 14.699219-14.699219v-1.699219c-.011719-8.113281-6.585938-14.6875-14.699219-14.699219zm66.101562-90.402343c69.101562 69.101562 69.101562 181.199219 0 250.300781s-181.199219 69.101562-250.300781 0c-69.097657-69.101562-69.097657-181.199219 0-250.300781 69.101562-69.097657 181.199219-69.097657 250.300781 0zm0 0"/></g><path d="m249.023438 132.257812h-8.796876l-33.101562-33.101562c-3.894531-3.894531-10.207031-3.894531-14.101562 0-3.890626 3.894531-3.890626 10.207031 0 14.101562l18.902343 18.898438h-69.800781l18.898438-18.898438c3.894531-3.894531 3.894531-10.207031 0-14.101562-3.890626-3.894531-10.203126-3.894531-14.097657 0l-33.101562 33.101562h-8.800781c-13.628907.027344-24.667969 11.070313-24.699219 24.699219v1.699219c.03125 10.472656 6.632812 19.796875 16.5 23.300781l8.101562 54.800781c1.863281 12.0625 12.195313 20.996094 24.398438 21.097657h95.300781c12.207031-.101563 22.539062-9.035157 24.398438-21.097657l8.101562-54.800781c9.886719-3.480469 16.5-12.820312 16.5-23.300781v-1.699219c.027344-6.542969-2.554688-12.824219-7.167969-17.460937-4.617187-4.632813-10.890625-7.238282-17.433593-7.238282zm-148.699219 24.699219c0-2.597656 2.105469-4.699219 4.699219-4.699219h144c2.597656 0 4.703124 2.101563 4.703124 4.699219v1.699219c0 2.597656-2.105468 4.699219-4.703124 4.699219h-144c-2.59375 0-4.699219-2.101563-4.699219-4.699219zm124.300781 80.800781h-95.300781c-2.316407.003907-4.28125-1.707031-4.597657-4l-7.5-50.5h119.5l-7.5 50.5c-.320312 2.292969-2.285156 4.003907-4.601562 4zm0 0" fill="#00acea"/></svg>