<svg height="466pt" viewBox="0 -51 466 466" width="466pt" xmlns="http://www.w3.org/2000/svg"><path d="m466 292.398438v30.800781c.007812 22.09375-17.90625 40.007812-40 40h-386c-22.09375.007812-40.0078125-17.90625-40-40v-30.800781h174.300781l8.097657 8.800781c7.574218 8.214843 18.230468 12.890625 29.402343 12.902343h42.300781c11.167969-.011718 21.828126-4.6875 29.398438-12.902343l8.101562-8.800781zm0 0" fill="#00acea"/><path d="m444.898438 291.398438v1h-43.5v-246.097657h-336.796876v246.097657h-43.402343v-252.398438c-.003907-22.09375 17.90625-40.0078125 40-40h343.699219c22.09375-.0078125 40.007812 17.90625 40 40zm0 0" fill="#d4e1f4"/><path d="m401.398438 291.800781v.597657h-109.699219l-8.097657 8.800781c-7.574218 8.214843-18.230468 12.890625-29.402343 12.902343h-42.300781c-11.167969-.011718-21.828126-4.6875-29.398438-12.902343l-8.101562-8.800781h-109.796876v-246.097657h336.796876zm0 0" fill="#00efd1"/><path d="m340 123.699219v-.398438c0-.199219-.101562-.402343-.101562-.601562 0-.097657-.097657-.300781-.097657-.398438 0-.199219-.101562-.300781-.101562-.5s-.097657-.300781-.199219-.5c-.023438-.152343-.09375-.289062-.199219-.402343-.101562-.199219-.101562-.398438-.199219-.5-.101562-.097657-.101562-.199219-.203124-.398438-.074219-.179688-.175782-.347656-.296876-.5 0-.101562-.101562-.101562-.101562-.199219l-21-34c-1.828125-2.933593-5.042969-4.710937-8.5-4.699219h-147.800781c-3.148438-.003906-6.113281 1.480469-8 4l-25.199219 34c0 .097657-.101562.097657-.101562.199219-.097657.199219-.199219.300781-.296876.5-.125.09375-.199218.242188-.203124.398438-.097657.199219-.199219.300781-.296876.5-.101562.101562-.101562.300781-.203124.402343-.097657.199219-.097657.296876-.199219.5-.097657.097657-.097657.296876-.199219.398438-.082031.152344-.117188.328125-.101562.5 0 .199219-.097657.300781-.097657.5 0 .101562-.101562.300781-.101562.398438-.023438.171874-.054688.335937-.097657.5v13.902343c-.003906 10.746094 6.585938 20.394531 16.597657 24.300781v87c.015625 5.515626 4.484375 9.984376 10 10h160.800781c5.515625-.015624 9.984375-4.484374 10-10v-87c9.992188-3.929687 16.574219-13.5625 16.601562-24.300781v-12.902343c-.078124-.222657-.109374-.460938-.101562-.699219zm-26.601562 19.300781c-.46875-.019531-.9375.011719-1.398438.101562-2.570312-.8125-4.3125-3.207031-4.300781-5.902343v-2.597657h12.300781v2.699219c.03125 2.820313-1.867188 5.296875-4.601562 6-.644532-.207031-1.320313-.304687-2-.300781zm-160.796876 0c-.671874.015625-1.339843.082031-2 .199219-2.734374-.703125-4.632812-3.179688-4.601562-6v-2.597657h12.300781v2.699219c.011719 2.695313-1.730469 5.085938-4.300781 5.898438-.457031-.121094-.925781-.1875-1.398438-.199219zm55.898438-42.398438-4.398438 14h-17.601562l8.898438-14zm28 0 4.398438 14h-15.796876l4.398438-14zm37.101562 0 7.398438 14h-19.199219l-4.402343-14zm-83.601562 51.796876c-6.304688-.105469-11.394531-5.191407-11.5-11.5v-6.296876h23v6.398438c-.078125 6.300781-5.199219 11.375-11.5 11.398438zm31.5-17.796876h23v6.398438c0 6.351562-5.148438 11.5-11.5 11.5s-11.5-5.148438-11.5-11.5zm-29.398438 37.796876c7.242188-.464844 14.101563-3.433594 19.398438-8.398438 12.132812 11.371094 31.019531 11.328125 43.101562-.101562 5.257813 4.976562 12.078126 7.976562 19.296876 8.5v32.300781h-81.796876zm95.597657-31.398438c0 6.351562-5.148438 11.5-11.5 11.5-6.351563 0-11.5-5.148438-11.5-11.5v-6.398438h23zm24.402343-26.398438h-8.402343l-7.398438-14h7.097657zm-145.902343-14h5.601562l-8.902343 14h-7zm-3.597657 138v-77.300781l2.398438-1.199219c2.011719 2.609376 4.40625 4.902344 7.101562 6.796876v47.902343c.015626 5.515625 4.480469 9.984375 10 10h101.796876c5.519531-.015625 9.984374-4.484375 10-10v-47.699219c2.75-1.867187 5.179687-4.164062 7.203124-6.800781.734376.425781 1.503907.792969 2.296876 1.097657v77.203124zm0 0" fill="#00acea"/></svg>